solid 189B
facet normal 0 0 -1
  outer loop
    vertex -173.4368286132813 23.33808708190918 0
    vertex -161.8697357177734 -66.50704193115234 0
    vertex -173.5674591064453 -22.34589385986328 0
  endloop
endfacet
facet normal 0 0 -1
  outer loop
    vertex -161.8697357177734 -66.50704193115234 0
    vertex -173.4368286132813 23.33808708190918 0
    vertex -161.4867706298828 67.43161773681641 0
  endloop
endfacet
facet normal 0 0 -1
  outer loop
    vertex -161.8697357177734 -66.50704193115234 0
    vertex -161.4867706298828 67.43161773681641 0
    vertex -139.1408843994141 -106.1358413696289 0
  endloop
endfacet
facet normal 0 0 -1
  outer loop
    vertex -139.1408843994141 -106.1358413696289 0
    vertex -161.4867706298828 67.43161773681641 0
    vertex -138.5316619873047 106.9297866821289 0
  endloop
endfacet
facet normal 0 0 -1
  outer loop
    vertex -139.1408843994141 -106.1358413696289 0
    vertex -138.5316619873047 106.9297866821289 0
    vertex -106.9297866821289 -138.5316619873047 0
  endloop
endfacet
facet normal 0 0 -1
  outer loop
    vertex -106.9297866821289 -138.5316619873047 0
    vertex -138.5316619873047 106.9297866821289 0
    vertex -106.1358413696289 139.1408843994141 0
  endloop
endfacet
facet normal 0 0 -1
  outer loop
    vertex -106.9297866821289 -138.5316619873047 0
    vertex -106.1358413696289 139.1408843994141 0
    vertex -67.43161773681641 -161.4867706298828 0
  endloop
endfacet
facet normal 0 0 -1
  outer loop
    vertex -67.43161773681641 -161.4867706298828 0
    vertex -106.1358413696289 139.1408843994141 0
    vertex -66.50704193115234 161.8697357177734 0
  endloop
endfacet
facet normal 0 0 -1
  outer loop
    vertex -67.43161773681641 -161.4867706298828 0
    vertex -66.50704193115234 161.8697357177734 0
    vertex -23.33808708190918 -173.4368286132813 0
  endloop
endfacet
facet normal 0 0 -1
  outer loop
    vertex -23.33808708190918 -173.4368286132813 0
    vertex -66.50704193115234 161.8697357177734 0
    vertex -22.34589385986328 173.5674591064453 0
  endloop
endfacet
facet normal 0 0 -1
  outer loop
    vertex -23.33808708190918 -173.4368286132813 0
    vertex -22.34589385986328 173.5674591064453 0
    vertex 22.34589385986328 -173.5674591064453 0
  endloop
endfacet
facet normal 0 0 -1
  outer loop
    vertex 22.34589385986328 -173.5674591064453 0
    vertex -22.34589385986328 173.5674591064453 0
    vertex 23.33808708190918 173.4368286132813 0
  endloop
endfacet
facet normal 0 0 -1
  outer loop
    vertex 22.34589385986328 -173.5674591064453 0
    vertex 23.33808708190918 173.4368286132813 0
    vertex 66.50704193115234 -161.8697357177734 0
  endloop
endfacet
facet normal 0 0 -1
  outer loop
    vertex 66.50704193115234 -161.8697357177734 0
    vertex 23.33808708190918 173.4368286132813 0
    vertex 67.43161773681641 161.4867706298828 0
  endloop
endfacet
facet normal 0 0 -1
  outer loop
    vertex 66.50704193115234 -161.8697357177734 0
    vertex 67.43161773681641 161.4867706298828 0
    vertex 106.1358413696289 -139.1408843994141 0
  endloop
endfacet
facet normal 0 0 -1
  outer loop
    vertex 106.1358413696289 -139.1408843994141 0
    vertex 67.43161773681641 161.4867706298828 0
    vertex 106.9297866821289 138.5316619873047 0
  endloop
endfacet
facet normal 0 0 -1
  outer loop
    vertex 106.1358413696289 -139.1408843994141 0
    vertex 106.9297866821289 138.5316619873047 0
    vertex 138.5316619873047 -106.9297866821289 0
  endloop
endfacet
facet normal 0 0 -1
  outer loop
    vertex 138.5316619873047 -106.9297866821289 0
    vertex 106.9297866821289 138.5316619873047 0
    vertex 139.1408843994141 106.1358413696289 0
  endloop
endfacet
facet normal 0 0 -1
  outer loop
    vertex 138.5316619873047 -106.9297866821289 0
    vertex 139.1408843994141 106.1358413696289 0
    vertex 161.4867706298828 -67.43161773681641 0
  endloop
endfacet
facet normal 0 0 -1
  outer loop
    vertex 161.4867706298828 -67.43161773681641 0
    vertex 139.1408843994141 106.1358413696289 0
    vertex 161.8697357177734 66.50704193115234 0
  endloop
endfacet
facet normal 0 0 -1
  outer loop
    vertex 161.4867706298828 -67.43161773681641 0
    vertex 161.8697357177734 66.50704193115234 0
    vertex 173.4368286132813 -23.33808708190918 0
  endloop
endfacet
facet normal 0 0 -1
  outer loop
    vertex 173.4368286132813 -23.33808708190918 0
    vertex 161.8697357177734 66.50704193115234 0
    vertex 173.5674591064453 22.34589385986328 0
  endloop
endfacet
facet normal 0.7050820589065552 -0.7091256976127625 0
  outer loop
    vertex 121.4175186157227 -93.71973419189453 175
    vertex 93.02386474609375 -121.9514770507813 19
    vertex 121.4175186157227 -93.71973419189453 19
  endloop
endfacet
facet normal 0.7050820589065552 -0.7091256976127625 0
  outer loop
    vertex 93.02386474609375 -121.9514770507813 19
    vertex 121.4175186157227 -93.71973419189453 175
    vertex 93.02386474609375 -121.9514770507813 175
  endloop
endfacet
facet normal 0.9999958872795105 -0.002859295345842838 0
  outer loop
    vertex 152.1250152587891 19.58529281616211 19
    vertex 152.0105285644531 -20.45491027832031 175
    vertex 152.0105285644531 -20.45491027832031 19
  endloop
endfacet
facet normal 0.9999958872795105 -0.002859295345842838 0
  outer loop
    vertex 152.0105285644531 -20.45491027832031 175
    vertex 152.1250152587891 19.58529281616211 19
    vertex 152.1250152587891 19.58529281616211 175
  endloop
endfacet
facet normal 0.2560561299324036 -0.9666619300842285 0
  outer loop
    vertex 58.29079055786133 -141.8724365234375 175
    vertex 19.58529281616211 -152.1250152587891 19
    vertex 58.29079055786133 -141.8724365234375 19
  endloop
endfacet
facet normal 0.2560561299324036 -0.9666619300842285 0
  outer loop
    vertex 19.58529281616211 -152.1250152587891 19
    vertex 58.29079055786133 -141.8724365234375 175
    vertex 19.58529281616211 -152.1250152587891 175
  endloop
endfacet
facet normal 0.965181827545166 -0.261579841375351 0
  outer loop
    vertex 152.0105285644531 -20.45491027832031 19
    vertex 141.5367736816406 -59.10114669799805 175
    vertex 141.5367736816406 -59.10114669799805 19
  endloop
endfacet
facet normal 0.965181827545166 -0.261579841375351 0
  outer loop
    vertex 141.5367736816406 -59.10114669799805 175
    vertex 152.0105285644531 -20.45491027832031 19
    vertex 152.0105285644531 -20.45491027832031 175
  endloop
endfacet
facet normal 0.9666619300842285 0.2560561299324036 0
  outer loop
    vertex 141.8724365234375 58.29079055786133 19
    vertex 152.1250152587891 19.58529281616211 175
    vertex 152.1250152587891 19.58529281616211 19
  endloop
endfacet
facet normal 0.9666619300842285 0.2560561299324036 0
  outer loop
    vertex 152.1250152587891 19.58529281616211 175
    vertex 141.8724365234375 58.29079055786133 19
    vertex 141.8724365234375 58.29079055786133 175
  endloop
endfacet
facet normal 0.8674514889717102 0.4975217282772064 0
  outer loop
    vertex 121.9514770507813 93.02386474609375 19
    vertex 141.8724365234375 58.29079055786133 175
    vertex 141.8724365234375 58.29079055786133 19
  endloop
endfacet
facet normal 0.8674514889717102 0.4975217282772064 0
  outer loop
    vertex 141.8724365234375 58.29079055786133 175
    vertex 121.9514770507813 93.02386474609375 19
    vertex 121.9514770507813 93.02386474609375 175
  endloop
endfacet
facet normal 0.7091256976127625 0.7050820589065552 0
  outer loop
    vertex 93.71973419189453 121.4175186157227 19
    vertex 121.9514770507813 93.02386474609375 175
    vertex 121.9514770507813 93.02386474609375 19
  endloop
endfacet
facet normal 0.7091256976127625 0.7050820589065552 0
  outer loop
    vertex 121.9514770507813 93.02386474609375 175
    vertex 93.71973419189453 121.4175186157227 19
    vertex 93.71973419189453 121.4175186157227 175
  endloop
endfacet
facet normal 0.4975217282772064 -0.8674514889717102 0
  outer loop
    vertex 93.02386474609375 -121.9514770507813 175
    vertex 58.29079055786133 -141.8724365234375 19
    vertex 93.02386474609375 -121.9514770507813 19
  endloop
endfacet
facet normal 0.4975217282772064 -0.8674514889717102 0
  outer loop
    vertex 58.29079055786133 -141.8724365234375 19
    vertex 93.02386474609375 -121.9514770507813 175
    vertex 58.29079055786133 -141.8724365234375 175
  endloop
endfacet
facet normal -0.002859295345842838 -0.9999958872795105 -0
  outer loop
    vertex 19.58529281616211 -152.1250152587891 175
    vertex -20.45491027832031 -152.0105285644531 19
    vertex 19.58529281616211 -152.1250152587891 19
  endloop
endfacet
facet normal -0.002859295345842838 -0.9999958872795105 -0
  outer loop
    vertex -20.45491027832031 -152.0105285644531 19
    vertex 19.58529281616211 -152.1250152587891 175
    vertex -20.45491027832031 -152.0105285644531 175
  endloop
endfacet
facet normal 0.8645921945571899 -0.5024741888046265 0
  outer loop
    vertex 141.5367736816406 -59.10114669799805 19
    vertex 121.4175186157227 -93.71973419189453 175
    vertex 121.4175186157227 -93.71973419189453 19
  endloop
endfacet
facet normal 0.8645921945571899 -0.5024741888046265 0
  outer loop
    vertex 121.4175186157227 -93.71973419189453 175
    vertex 141.5367736816406 -59.10114669799805 19
    vertex 141.5367736816406 -59.10114669799805 175
  endloop
endfacet
facet normal 0.5024741888046265 0.8645921945571899 0
  outer loop
    vertex 59.10114669799805 141.5367736816406 175
    vertex 93.71973419189453 121.4175186157227 19
    vertex 59.10114669799805 141.5367736816406 19
  endloop
endfacet
facet normal 0.5024741888046265 0.8645921945571899 0
  outer loop
    vertex 93.71973419189453 121.4175186157227 19
    vertex 59.10114669799805 141.5367736816406 175
    vertex 93.71973419189453 121.4175186157227 175
  endloop
endfacet
facet normal -0.965181827545166 0.261579841375351 0
  outer loop
    vertex -141.5367736816406 59.10114669799805 175
    vertex -152.0105285644531 20.45491027832031 19
    vertex -152.0105285644531 20.45491027832031 175
  endloop
endfacet
facet normal -0.965181827545166 0.261579841375351 0
  outer loop
    vertex -152.0105285644531 20.45491027832031 19
    vertex -141.5367736816406 59.10114669799805 175
    vertex -141.5367736816406 59.10114669799805 19
  endloop
endfacet
facet normal -0.9666619300842285 -0.2560561299324036 -0
  outer loop
    vertex -152.1250152587891 -19.58529281616211 175
    vertex -141.8724365234375 -58.29079055786133 19
    vertex -141.8724365234375 -58.29079055786133 175
  endloop
endfacet
facet normal -0.9666619300842285 -0.2560561299324036 -0
  outer loop
    vertex -141.8724365234375 -58.29079055786133 19
    vertex -152.1250152587891 -19.58529281616211 175
    vertex -152.1250152587891 -19.58529281616211 19
  endloop
endfacet
facet normal -0.9999958872795105 0.002859295345842838 0
  outer loop
    vertex -152.0105285644531 20.45491027832031 175
    vertex -152.1250152587891 -19.58529281616211 19
    vertex -152.1250152587891 -19.58529281616211 175
  endloop
endfacet
facet normal -0.9999958872795105 0.002859295345842838 0
  outer loop
    vertex -152.1250152587891 -19.58529281616211 19
    vertex -152.0105285644531 20.45491027832031 175
    vertex -152.0105285644531 20.45491027832031 19
  endloop
endfacet
facet normal -0.8674514889717102 -0.4975217282772064 -0
  outer loop
    vertex -141.8724365234375 -58.29079055786133 175
    vertex -121.9514770507813 -93.02386474609375 19
    vertex -121.9514770507813 -93.02386474609375 175
  endloop
endfacet
facet normal -0.8674514889717102 -0.4975217282772064 -0
  outer loop
    vertex -121.9514770507813 -93.02386474609375 19
    vertex -141.8724365234375 -58.29079055786133 175
    vertex -141.8724365234375 -58.29079055786133 19
  endloop
endfacet
facet normal -0.7091256976127625 -0.7050820589065552 -0
  outer loop
    vertex -121.9514770507813 -93.02386474609375 175
    vertex -93.71973419189453 -121.4175186157227 19
    vertex -93.71973419189453 -121.4175186157227 175
  endloop
endfacet
facet normal -0.7091256976127625 -0.7050820589065552 -0
  outer loop
    vertex -93.71973419189453 -121.4175186157227 19
    vertex -121.9514770507813 -93.02386474609375 175
    vertex -121.9514770507813 -93.02386474609375 19
  endloop
endfacet
facet normal -0.8645921945571899 0.5024741888046265 0
  outer loop
    vertex -121.4175186157227 93.71973419189453 175
    vertex -141.5367736816406 59.10114669799805 19
    vertex -141.5367736816406 59.10114669799805 175
  endloop
endfacet
facet normal -0.8645921945571899 0.5024741888046265 0
  outer loop
    vertex -141.5367736816406 59.10114669799805 19
    vertex -121.4175186157227 93.71973419189453 175
    vertex -121.4175186157227 93.71973419189453 19
  endloop
endfacet
facet normal -0.5024741888046265 -0.8645921945571899 -0
  outer loop
    vertex -59.10114669799805 -141.5367736816406 175
    vertex -93.71973419189453 -121.4175186157227 19
    vertex -59.10114669799805 -141.5367736816406 19
  endloop
endfacet
facet normal -0.5024741888046265 -0.8645921945571899 -0
  outer loop
    vertex -93.71973419189453 -121.4175186157227 19
    vertex -59.10114669799805 -141.5367736816406 175
    vertex -93.71973419189453 -121.4175186157227 175
  endloop
endfacet
facet normal -0.261579841375351 -0.965181827545166 -0
  outer loop
    vertex -20.45491027832031 -152.0105285644531 175
    vertex -59.10114669799805 -141.5367736816406 19
    vertex -20.45491027832031 -152.0105285644531 19
  endloop
endfacet
facet normal -0.261579841375351 -0.965181827545166 -0
  outer loop
    vertex -59.10114669799805 -141.5367736816406 19
    vertex -20.45491027832031 -152.0105285644531 175
    vertex -59.10114669799805 -141.5367736816406 175
  endloop
endfacet
facet normal 0.002859295345842838 0.9999958872795105 0
  outer loop
    vertex -19.58529281616211 152.1250152587891 175
    vertex 20.45491027832031 152.0105285644531 19
    vertex -19.58529281616211 152.1250152587891 19
  endloop
endfacet
facet normal 0.002859295345842838 0.9999958872795105 0
  outer loop
    vertex 20.45491027832031 152.0105285644531 19
    vertex -19.58529281616211 152.1250152587891 175
    vertex 20.45491027832031 152.0105285644531 175
  endloop
endfacet
facet normal -0.2560561299324036 0.9666619300842285 0
  outer loop
    vertex -58.29079055786133 141.8724365234375 175
    vertex -19.58529281616211 152.1250152587891 19
    vertex -58.29079055786133 141.8724365234375 19
  endloop
endfacet
facet normal -0.2560561299324036 0.9666619300842285 0
  outer loop
    vertex -19.58529281616211 152.1250152587891 19
    vertex -58.29079055786133 141.8724365234375 175
    vertex -19.58529281616211 152.1250152587891 175
  endloop
endfacet
facet normal -0.4975217282772064 0.8674514889717102 0
  outer loop
    vertex -93.02386474609375 121.9514770507813 175
    vertex -58.29079055786133 141.8724365234375 19
    vertex -93.02386474609375 121.9514770507813 19
  endloop
endfacet
facet normal -0.4975217282772064 0.8674514889717102 0
  outer loop
    vertex -58.29079055786133 141.8724365234375 19
    vertex -93.02386474609375 121.9514770507813 175
    vertex -58.29079055786133 141.8724365234375 175
  endloop
endfacet
facet normal -0.7050820589065552 0.7091256976127625 0
  outer loop
    vertex -121.4175186157227 93.71973419189453 175
    vertex -93.02386474609375 121.9514770507813 19
    vertex -121.4175186157227 93.71973419189453 19
  endloop
endfacet
facet normal -0.7050820589065552 0.7091256976127625 0
  outer loop
    vertex -93.02386474609375 121.9514770507813 19
    vertex -121.4175186157227 93.71973419189453 175
    vertex -93.02386474609375 121.9514770507813 175
  endloop
endfacet
facet normal 0.261579841375351 0.965181827545166 0
  outer loop
    vertex 20.45491027832031 152.0105285644531 175
    vertex 59.10114669799805 141.5367736816406 19
    vertex 20.45491027832031 152.0105285644531 19
  endloop
endfacet
facet normal 0.261579841375351 0.965181827545166 0
  outer loop
    vertex 59.10114669799805 141.5367736816406 19
    vertex 20.45491027832031 152.0105285644531 175
    vertex 59.10114669799805 141.5367736816406 175
  endloop
endfacet
facet normal 0.7091256976127625 0.7050820589065552 0
  outer loop
    vertex 106.9297866821289 138.5316619873047 0
    vertex 139.1408843994141 106.1358413696289 19
    vertex 139.1408843994141 106.1358413696289 0
  endloop
endfacet
facet normal 0.7091256976127625 0.7050820589065552 0
  outer loop
    vertex 139.1408843994141 106.1358413696289 19
    vertex 106.9297866821289 138.5316619873047 0
    vertex 106.9297866821289 138.5316619873047 19
  endloop
endfacet
facet normal 0.8645921945571899 -0.5024741888046265 0
  outer loop
    vertex 161.4867706298828 -67.43161773681641 0
    vertex 138.5316619873047 -106.9297866821289 19
    vertex 138.5316619873047 -106.9297866821289 0
  endloop
endfacet
facet normal 0.8645921945571899 -0.5024741888046265 0
  outer loop
    vertex 138.5316619873047 -106.9297866821289 19
    vertex 161.4867706298828 -67.43161773681641 0
    vertex 161.4867706298828 -67.43161773681641 19
  endloop
endfacet
facet normal -0.002859295345842838 -0.9999958872795105 -0
  outer loop
    vertex 22.34589385986328 -173.5674591064453 19
    vertex -23.33808708190918 -173.4368286132813 0
    vertex 22.34589385986328 -173.5674591064453 0
  endloop
endfacet
facet normal -0.002859295345842838 -0.9999958872795105 -0
  outer loop
    vertex -23.33808708190918 -173.4368286132813 0
    vertex 22.34589385986328 -173.5674591064453 19
    vertex -23.33808708190918 -173.4368286132813 19
  endloop
endfacet
facet normal -0.261579841375351 -0.965181827545166 -0
  outer loop
    vertex -23.33808708190918 -173.4368286132813 19
    vertex -67.43161773681641 -161.4867706298828 0
    vertex -23.33808708190918 -173.4368286132813 0
  endloop
endfacet
facet normal -0.261579841375351 -0.965181827545166 -0
  outer loop
    vertex -67.43161773681641 -161.4867706298828 0
    vertex -23.33808708190918 -173.4368286132813 19
    vertex -67.43161773681641 -161.4867706298828 19
  endloop
endfacet
facet normal 0.4975217282772064 -0.8674514889717102 0
  outer loop
    vertex 106.1358413696289 -139.1408843994141 19
    vertex 66.50704193115234 -161.8697357177734 0
    vertex 106.1358413696289 -139.1408843994141 0
  endloop
endfacet
facet normal 0.4975217282772064 -0.8674514889717102 0
  outer loop
    vertex 66.50704193115234 -161.8697357177734 0
    vertex 106.1358413696289 -139.1408843994141 19
    vertex 66.50704193115234 -161.8697357177734 19
  endloop
endfacet
facet normal 0.9666619300842285 0.2560561299324036 0
  outer loop
    vertex 161.8697357177734 66.50704193115234 0
    vertex 173.5674591064453 22.34589385986328 19
    vertex 173.5674591064453 22.34589385986328 0
  endloop
endfacet
facet normal 0.9666619300842285 0.2560561299324036 0
  outer loop
    vertex 173.5674591064453 22.34589385986328 19
    vertex 161.8697357177734 66.50704193115234 0
    vertex 161.8697357177734 66.50704193115234 19
  endloop
endfacet
facet normal 0.9999958872795105 -0.002859295345842838 0
  outer loop
    vertex 173.5674591064453 22.34589385986328 0
    vertex 173.4368286132813 -23.33808708190918 19
    vertex 173.4368286132813 -23.33808708190918 0
  endloop
endfacet
facet normal 0.9999958872795105 -0.002859295345842838 0
  outer loop
    vertex 173.4368286132813 -23.33808708190918 19
    vertex 173.5674591064453 22.34589385986328 0
    vertex 173.5674591064453 22.34589385986328 19
  endloop
endfacet
facet normal 0.8674514889717102 0.4975217282772064 0
  outer loop
    vertex 139.1408843994141 106.1358413696289 0
    vertex 161.8697357177734 66.50704193115234 19
    vertex 161.8697357177734 66.50704193115234 0
  endloop
endfacet
facet normal 0.8674514889717102 0.4975217282772064 0
  outer loop
    vertex 161.8697357177734 66.50704193115234 19
    vertex 139.1408843994141 106.1358413696289 0
    vertex 139.1408843994141 106.1358413696289 19
  endloop
endfacet
facet normal 0.965181827545166 -0.261579841375351 0
  outer loop
    vertex 173.4368286132813 -23.33808708190918 0
    vertex 161.4867706298828 -67.43161773681641 19
    vertex 161.4867706298828 -67.43161773681641 0
  endloop
endfacet
facet normal 0.965181827545166 -0.261579841375351 0
  outer loop
    vertex 161.4867706298828 -67.43161773681641 19
    vertex 173.4368286132813 -23.33808708190918 0
    vertex 173.4368286132813 -23.33808708190918 19
  endloop
endfacet
facet normal 0.2560561299324036 -0.9666619300842285 0
  outer loop
    vertex 66.50704193115234 -161.8697357177734 19
    vertex 22.34589385986328 -173.5674591064453 0
    vertex 66.50704193115234 -161.8697357177734 0
  endloop
endfacet
facet normal 0.2560561299324036 -0.9666619300842285 0
  outer loop
    vertex 22.34589385986328 -173.5674591064453 0
    vertex 66.50704193115234 -161.8697357177734 19
    vertex 22.34589385986328 -173.5674591064453 19
  endloop
endfacet
facet normal 0.7050820589065552 -0.7091256976127625 0
  outer loop
    vertex 138.5316619873047 -106.9297866821289 19
    vertex 106.1358413696289 -139.1408843994141 0
    vertex 138.5316619873047 -106.9297866821289 0
  endloop
endfacet
facet normal 0.7050820589065552 -0.7091256976127625 0
  outer loop
    vertex 106.1358413696289 -139.1408843994141 0
    vertex 138.5316619873047 -106.9297866821289 19
    vertex 106.1358413696289 -139.1408843994141 19
  endloop
endfacet
facet normal 0 0 1
  outer loop
    vertex -161.8697357177734 -66.50704193115234 19
    vertex -173.4368286132813 23.33808708190918 19
    vertex -173.5674591064453 -22.34589385986328 19
  endloop
endfacet
facet normal 0 0 1
  outer loop
    vertex -173.4368286132813 23.33808708190918 19
    vertex -161.8697357177734 -66.50704193115234 19
    vertex -161.4867706298828 67.43161773681641 19
  endloop
endfacet
facet normal 0 0 1
  outer loop
    vertex -161.4867706298828 67.43161773681641 19
    vertex -161.8697357177734 -66.50704193115234 19
    vertex -152.1250152587891 -19.58529281616211 19
  endloop
endfacet
facet normal 0 0 1
  outer loop
    vertex -152.1250152587891 -19.58529281616211 19
    vertex -161.8697357177734 -66.50704193115234 19
    vertex -139.1408843994141 -106.1358413696289 19
  endloop
endfacet
facet normal 0 0 1
  outer loop
    vertex -152.1250152587891 -19.58529281616211 19
    vertex -139.1408843994141 -106.1358413696289 19
    vertex -141.8724365234375 -58.29079055786133 19
  endloop
endfacet
facet normal 0 0 1
  outer loop
    vertex -141.8724365234375 -58.29079055786133 19
    vertex -139.1408843994141 -106.1358413696289 19
    vertex -121.9514770507813 -93.02386474609375 19
  endloop
endfacet
facet normal 0 0 1
  outer loop
    vertex -121.9514770507813 -93.02386474609375 19
    vertex -139.1408843994141 -106.1358413696289 19
    vertex -106.9297866821289 -138.5316619873047 19
  endloop
endfacet
facet normal 0 0 1
  outer loop
    vertex -121.9514770507813 -93.02386474609375 19
    vertex -106.9297866821289 -138.5316619873047 19
    vertex -93.71973419189453 -121.4175186157227 19
  endloop
endfacet
facet normal 0 0 1
  outer loop
    vertex -93.71973419189453 -121.4175186157227 19
    vertex -106.9297866821289 -138.5316619873047 19
    vertex -67.43161773681641 -161.4867706298828 19
  endloop
endfacet
facet normal 0 0 1
  outer loop
    vertex -93.71973419189453 -121.4175186157227 19
    vertex -67.43161773681641 -161.4867706298828 19
    vertex -59.10114669799805 -141.5367736816406 19
  endloop
endfacet
facet normal 0 0 1
  outer loop
    vertex -59.10114669799805 -141.5367736816406 19
    vertex -67.43161773681641 -161.4867706298828 19
    vertex -23.33808708190918 -173.4368286132813 19
  endloop
endfacet
facet normal 0 0 1
  outer loop
    vertex -59.10114669799805 -141.5367736816406 19
    vertex -23.33808708190918 -173.4368286132813 19
    vertex -20.45491027832031 -152.0105285644531 19
  endloop
endfacet
facet normal 0 0 1
  outer loop
    vertex -20.45491027832031 -152.0105285644531 19
    vertex -23.33808708190918 -173.4368286132813 19
    vertex 22.34589385986328 -173.5674591064453 19
  endloop
endfacet
facet normal 0 0 1
  outer loop
    vertex -20.45491027832031 -152.0105285644531 19
    vertex 22.34589385986328 -173.5674591064453 19
    vertex 19.58529281616211 -152.1250152587891 19
  endloop
endfacet
facet normal 0 0 1
  outer loop
    vertex 19.58529281616211 -152.1250152587891 19
    vertex 22.34589385986328 -173.5674591064453 19
    vertex 58.29079055786133 -141.8724365234375 19
  endloop
endfacet
facet normal 0 0 1
  outer loop
    vertex 58.29079055786133 -141.8724365234375 19
    vertex 22.34589385986328 -173.5674591064453 19
    vertex 66.50704193115234 -161.8697357177734 19
  endloop
endfacet
facet normal 0 0 1
  outer loop
    vertex 58.29079055786133 -141.8724365234375 19
    vertex 66.50704193115234 -161.8697357177734 19
    vertex 93.02386474609375 -121.9514770507813 19
  endloop
endfacet
facet normal 0 0 1
  outer loop
    vertex 93.02386474609375 -121.9514770507813 19
    vertex 66.50704193115234 -161.8697357177734 19
    vertex 106.1358413696289 -139.1408843994141 19
  endloop
endfacet
facet normal 0 0 1
  outer loop
    vertex 93.02386474609375 -121.9514770507813 19
    vertex 106.1358413696289 -139.1408843994141 19
    vertex 121.4175186157227 -93.71973419189453 19
  endloop
endfacet
facet normal 0 0 1
  outer loop
    vertex 121.4175186157227 -93.71973419189453 19
    vertex 106.1358413696289 -139.1408843994141 19
    vertex 138.5316619873047 -106.9297866821289 19
  endloop
endfacet
facet normal 0 0 1
  outer loop
    vertex 121.4175186157227 -93.71973419189453 19
    vertex 138.5316619873047 -106.9297866821289 19
    vertex 141.5367736816406 -59.10114669799805 19
  endloop
endfacet
facet normal 0 0 1
  outer loop
    vertex 141.5367736816406 -59.10114669799805 19
    vertex 138.5316619873047 -106.9297866821289 19
    vertex 161.4867706298828 -67.43161773681641 19
  endloop
endfacet
facet normal 0 0 1
  outer loop
    vertex 141.5367736816406 -59.10114669799805 19
    vertex 161.4867706298828 -67.43161773681641 19
    vertex 152.0105285644531 -20.45491027832031 19
  endloop
endfacet
facet normal 0 0 1
  outer loop
    vertex 152.0105285644531 -20.45491027832031 19
    vertex 161.4867706298828 -67.43161773681641 19
    vertex 152.1250152587891 19.58529281616211 19
  endloop
endfacet
facet normal 0 0 1
  outer loop
    vertex -161.4867706298828 67.43161773681641 19
    vertex -152.0105285644531 20.45491027832031 19
    vertex -138.5316619873047 106.9297866821289 19
  endloop
endfacet
facet normal 0 0 1
  outer loop
    vertex -152.0105285644531 20.45491027832031 19
    vertex -161.4867706298828 67.43161773681641 19
    vertex -152.1250152587891 -19.58529281616211 19
  endloop
endfacet
facet normal 0 0 1
  outer loop
    vertex -138.5316619873047 106.9297866821289 19
    vertex -152.0105285644531 20.45491027832031 19
    vertex -141.5367736816406 59.10114669799805 19
  endloop
endfacet
facet normal 0 0 1
  outer loop
    vertex -138.5316619873047 106.9297866821289 19
    vertex -141.5367736816406 59.10114669799805 19
    vertex -121.4175186157227 93.71973419189453 19
  endloop
endfacet
facet normal 0 0 1
  outer loop
    vertex -138.5316619873047 106.9297866821289 19
    vertex -121.4175186157227 93.71973419189453 19
    vertex -106.1358413696289 139.1408843994141 19
  endloop
endfacet
facet normal 0 0 1
  outer loop
    vertex -106.1358413696289 139.1408843994141 19
    vertex -121.4175186157227 93.71973419189453 19
    vertex -93.02386474609375 121.9514770507813 19
  endloop
endfacet
facet normal 0 0 1
  outer loop
    vertex -106.1358413696289 139.1408843994141 19
    vertex -93.02386474609375 121.9514770507813 19
    vertex -66.50704193115234 161.8697357177734 19
  endloop
endfacet
facet normal 0 0 1
  outer loop
    vertex -66.50704193115234 161.8697357177734 19
    vertex -93.02386474609375 121.9514770507813 19
    vertex -58.29079055786133 141.8724365234375 19
  endloop
endfacet
facet normal 0 0 1
  outer loop
    vertex -66.50704193115234 161.8697357177734 19
    vertex -58.29079055786133 141.8724365234375 19
    vertex -22.34589385986328 173.5674591064453 19
  endloop
endfacet
facet normal 0 0 1
  outer loop
    vertex -22.34589385986328 173.5674591064453 19
    vertex -58.29079055786133 141.8724365234375 19
    vertex -19.58529281616211 152.1250152587891 19
  endloop
endfacet
facet normal 0 0 1
  outer loop
    vertex -22.34589385986328 173.5674591064453 19
    vertex -19.58529281616211 152.1250152587891 19
    vertex 23.33808708190918 173.4368286132813 19
  endloop
endfacet
facet normal 0 0 1
  outer loop
    vertex 23.33808708190918 173.4368286132813 19
    vertex -19.58529281616211 152.1250152587891 19
    vertex 20.45491027832031 152.0105285644531 19
  endloop
endfacet
facet normal 0 0 1
  outer loop
    vertex 23.33808708190918 173.4368286132813 19
    vertex 20.45491027832031 152.0105285644531 19
    vertex 59.10114669799805 141.5367736816406 19
  endloop
endfacet
facet normal 0 0 1
  outer loop
    vertex 23.33808708190918 173.4368286132813 19
    vertex 59.10114669799805 141.5367736816406 19
    vertex 67.43161773681641 161.4867706298828 19
  endloop
endfacet
facet normal 0 0 1
  outer loop
    vertex 67.43161773681641 161.4867706298828 19
    vertex 59.10114669799805 141.5367736816406 19
    vertex 93.71973419189453 121.4175186157227 19
  endloop
endfacet
facet normal 0 0 1
  outer loop
    vertex 67.43161773681641 161.4867706298828 19
    vertex 93.71973419189453 121.4175186157227 19
    vertex 106.9297866821289 138.5316619873047 19
  endloop
endfacet
facet normal 0 0 1
  outer loop
    vertex 106.9297866821289 138.5316619873047 19
    vertex 93.71973419189453 121.4175186157227 19
    vertex 121.9514770507813 93.02386474609375 19
  endloop
endfacet
facet normal 0 0 1
  outer loop
    vertex 106.9297866821289 138.5316619873047 19
    vertex 121.9514770507813 93.02386474609375 19
    vertex 139.1408843994141 106.1358413696289 19
  endloop
endfacet
facet normal 0 0 1
  outer loop
    vertex 139.1408843994141 106.1358413696289 19
    vertex 121.9514770507813 93.02386474609375 19
    vertex 141.8724365234375 58.29079055786133 19
  endloop
endfacet
facet normal 0 0 1
  outer loop
    vertex 139.1408843994141 106.1358413696289 19
    vertex 141.8724365234375 58.29079055786133 19
    vertex 161.8697357177734 66.50704193115234 19
  endloop
endfacet
facet normal 0 0 1
  outer loop
    vertex 161.8697357177734 66.50704193115234 19
    vertex 141.8724365234375 58.29079055786133 19
    vertex 152.1250152587891 19.58529281616211 19
  endloop
endfacet
facet normal 0 0 1
  outer loop
    vertex 161.8697357177734 66.50704193115234 19
    vertex 152.1250152587891 19.58529281616211 19
    vertex 161.4867706298828 -67.43161773681641 19
  endloop
endfacet
facet normal 0 0 1
  outer loop
    vertex 161.8697357177734 66.50704193115234 19
    vertex 161.4867706298828 -67.43161773681641 19
    vertex 173.4368286132813 -23.33808708190918 19
  endloop
endfacet
facet normal 0 0 1
  outer loop
    vertex 161.8697357177734 66.50704193115234 19
    vertex 173.4368286132813 -23.33808708190918 19
    vertex 173.5674591064453 22.34589385986328 19
  endloop
endfacet
facet normal 0.261579841375351 0.965181827545166 0
  outer loop
    vertex 23.33808708190918 173.4368286132813 19
    vertex 67.43161773681641 161.4867706298828 0
    vertex 23.33808708190918 173.4368286132813 0
  endloop
endfacet
facet normal 0.261579841375351 0.965181827545166 0
  outer loop
    vertex 67.43161773681641 161.4867706298828 0
    vertex 23.33808708190918 173.4368286132813 19
    vertex 67.43161773681641 161.4867706298828 19
  endloop
endfacet
facet normal 0.002859295345842838 0.9999958872795105 0
  outer loop
    vertex -22.34589385986328 173.5674591064453 19
    vertex 23.33808708190918 173.4368286132813 0
    vertex -22.34589385986328 173.5674591064453 0
  endloop
endfacet
facet normal 0.002859295345842838 0.9999958872795105 0
  outer loop
    vertex 23.33808708190918 173.4368286132813 0
    vertex -22.34589385986328 173.5674591064453 19
    vertex 23.33808708190918 173.4368286132813 19
  endloop
endfacet
facet normal 0.5024741888046265 0.8645921945571899 0
  outer loop
    vertex 67.43161773681641 161.4867706298828 19
    vertex 106.9297866821289 138.5316619873047 0
    vertex 67.43161773681641 161.4867706298828 0
  endloop
endfacet
facet normal 0.5024741888046265 0.8645921945571899 0
  outer loop
    vertex 106.9297866821289 138.5316619873047 0
    vertex 67.43161773681641 161.4867706298828 19
    vertex 106.9297866821289 138.5316619873047 19
  endloop
endfacet
facet normal -0.7091256976127625 -0.7050820589065552 -0
  outer loop
    vertex -139.1408843994141 -106.1358413696289 19
    vertex -106.9297866821289 -138.5316619873047 0
    vertex -106.9297866821289 -138.5316619873047 19
  endloop
endfacet
facet normal -0.7091256976127625 -0.7050820589065552 -0
  outer loop
    vertex -106.9297866821289 -138.5316619873047 0
    vertex -139.1408843994141 -106.1358413696289 19
    vertex -139.1408843994141 -106.1358413696289 0
  endloop
endfacet
facet normal -0.965181827545166 0.261579841375351 0
  outer loop
    vertex -161.4867706298828 67.43161773681641 19
    vertex -173.4368286132813 23.33808708190918 0
    vertex -173.4368286132813 23.33808708190918 19
  endloop
endfacet
facet normal -0.965181827545166 0.261579841375351 0
  outer loop
    vertex -173.4368286132813 23.33808708190918 0
    vertex -161.4867706298828 67.43161773681641 19
    vertex -161.4867706298828 67.43161773681641 0
  endloop
endfacet
facet normal -0.9999958872795105 0.002859295345842838 0
  outer loop
    vertex -173.4368286132813 23.33808708190918 19
    vertex -173.5674591064453 -22.34589385986328 0
    vertex -173.5674591064453 -22.34589385986328 19
  endloop
endfacet
facet normal -0.9999958872795105 0.002859295345842838 0
  outer loop
    vertex -173.5674591064453 -22.34589385986328 0
    vertex -173.4368286132813 23.33808708190918 19
    vertex -173.4368286132813 23.33808708190918 0
  endloop
endfacet
facet normal -0.8674514889717102 -0.4975217282772064 -0
  outer loop
    vertex -161.8697357177734 -66.50704193115234 19
    vertex -139.1408843994141 -106.1358413696289 0
    vertex -139.1408843994141 -106.1358413696289 19
  endloop
endfacet
facet normal -0.8674514889717102 -0.4975217282772064 -0
  outer loop
    vertex -139.1408843994141 -106.1358413696289 0
    vertex -161.8697357177734 -66.50704193115234 19
    vertex -161.8697357177734 -66.50704193115234 0
  endloop
endfacet
facet normal -0.8645921945571899 0.5024741888046265 0
  outer loop
    vertex -138.5316619873047 106.9297866821289 19
    vertex -161.4867706298828 67.43161773681641 0
    vertex -161.4867706298828 67.43161773681641 19
  endloop
endfacet
facet normal -0.8645921945571899 0.5024741888046265 0
  outer loop
    vertex -161.4867706298828 67.43161773681641 0
    vertex -138.5316619873047 106.9297866821289 19
    vertex -138.5316619873047 106.9297866821289 0
  endloop
endfacet
facet normal -0.4975217282772064 0.8674514889717102 0
  outer loop
    vertex -106.1358413696289 139.1408843994141 19
    vertex -66.50704193115234 161.8697357177734 0
    vertex -106.1358413696289 139.1408843994141 0
  endloop
endfacet
facet normal -0.4975217282772064 0.8674514889717102 0
  outer loop
    vertex -66.50704193115234 161.8697357177734 0
    vertex -106.1358413696289 139.1408843994141 19
    vertex -66.50704193115234 161.8697357177734 19
  endloop
endfacet
facet normal -0.5024741888046265 -0.8645921945571899 -0
  outer loop
    vertex -67.43161773681641 -161.4867706298828 19
    vertex -106.9297866821289 -138.5316619873047 0
    vertex -67.43161773681641 -161.4867706298828 0
  endloop
endfacet
facet normal -0.5024741888046265 -0.8645921945571899 -0
  outer loop
    vertex -106.9297866821289 -138.5316619873047 0
    vertex -67.43161773681641 -161.4867706298828 19
    vertex -106.9297866821289 -138.5316619873047 19
  endloop
endfacet
facet normal -0.2560561299324036 0.9666619300842285 0
  outer loop
    vertex -66.50704193115234 161.8697357177734 19
    vertex -22.34589385986328 173.5674591064453 0
    vertex -66.50704193115234 161.8697357177734 0
  endloop
endfacet
facet normal -0.2560561299324036 0.9666619300842285 0
  outer loop
    vertex -22.34589385986328 173.5674591064453 0
    vertex -66.50704193115234 161.8697357177734 19
    vertex -22.34589385986328 173.5674591064453 19
  endloop
endfacet
facet normal -0.9666619300842285 -0.2560561299324036 -0
  outer loop
    vertex -173.5674591064453 -22.34589385986328 19
    vertex -161.8697357177734 -66.50704193115234 0
    vertex -161.8697357177734 -66.50704193115234 19
  endloop
endfacet
facet normal -0.9666619300842285 -0.2560561299324036 -0
  outer loop
    vertex -161.8697357177734 -66.50704193115234 0
    vertex -173.5674591064453 -22.34589385986328 19
    vertex -173.5674591064453 -22.34589385986328 0
  endloop
endfacet
facet normal -0.7050820589065552 0.7091256976127625 0
  outer loop
    vertex -138.5316619873047 106.9297866821289 19
    vertex -106.1358413696289 139.1408843994141 0
    vertex -138.5316619873047 106.9297866821289 0
  endloop
endfacet
facet normal -0.7050820589065552 0.7091256976127625 0
  outer loop
    vertex -106.1358413696289 139.1408843994141 0
    vertex -138.5316619873047 106.9297866821289 19
    vertex -106.1358413696289 139.1408843994141 19
  endloop
endfacet
facet normal 0 0 1
  outer loop
    vertex -141.8724365234375 -58.29079055786133 175
    vertex -152.0105285644531 20.45491027832031 175
    vertex -152.1250152587891 -19.58529281616211 175
  endloop
endfacet
facet normal 0 0 1
  outer loop
    vertex -152.0105285644531 20.45491027832031 175
    vertex -141.8724365234375 -58.29079055786133 175
    vertex -141.5367736816406 59.10114669799805 175
  endloop
endfacet
facet normal 0 0 1
  outer loop
    vertex -141.5367736816406 59.10114669799805 175
    vertex -141.8724365234375 -58.29079055786133 175
    vertex -121.9514770507813 -93.02386474609375 175
  endloop
endfacet
facet normal 0 0 1
  outer loop
    vertex -141.5367736816406 59.10114669799805 175
    vertex -121.9514770507813 -93.02386474609375 175
    vertex -121.4175186157227 93.71973419189453 175
  endloop
endfacet
facet normal 0 0 1
  outer loop
    vertex -121.4175186157227 93.71973419189453 175
    vertex -121.9514770507813 -93.02386474609375 175
    vertex -93.71973419189453 -121.4175186157227 175
  endloop
endfacet
facet normal 0 0 1
  outer loop
    vertex -121.4175186157227 93.71973419189453 175
    vertex -93.71973419189453 -121.4175186157227 175
    vertex -93.02386474609375 121.9514770507813 175
  endloop
endfacet
facet normal 0 0 1
  outer loop
    vertex -93.02386474609375 121.9514770507813 175
    vertex -93.71973419189453 -121.4175186157227 175
    vertex -59.10114669799805 -141.5367736816406 175
  endloop
endfacet
facet normal 0 0 1
  outer loop
    vertex -93.02386474609375 121.9514770507813 175
    vertex -59.10114669799805 -141.5367736816406 175
    vertex -58.29079055786133 141.8724365234375 175
  endloop
endfacet
facet normal 0 0 1
  outer loop
    vertex -58.29079055786133 141.8724365234375 175
    vertex -59.10114669799805 -141.5367736816406 175
    vertex -20.45491027832031 -152.0105285644531 175
  endloop
endfacet
facet normal 0 0 1
  outer loop
    vertex -58.29079055786133 141.8724365234375 175
    vertex -20.45491027832031 -152.0105285644531 175
    vertex -19.58529281616211 152.1250152587891 175
  endloop
endfacet
facet normal 0 0 1
  outer loop
    vertex -19.58529281616211 152.1250152587891 175
    vertex -20.45491027832031 -152.0105285644531 175
    vertex 19.58529281616211 -152.1250152587891 175
  endloop
endfacet
facet normal 0 0 1
  outer loop
    vertex -19.58529281616211 152.1250152587891 175
    vertex 19.58529281616211 -152.1250152587891 175
    vertex 20.45491027832031 152.0105285644531 175
  endloop
endfacet
facet normal 0 0 1
  outer loop
    vertex 20.45491027832031 152.0105285644531 175
    vertex 19.58529281616211 -152.1250152587891 175
    vertex 58.29079055786133 -141.8724365234375 175
  endloop
endfacet
facet normal 0 0 1
  outer loop
    vertex 20.45491027832031 152.0105285644531 175
    vertex 58.29079055786133 -141.8724365234375 175
    vertex 59.10114669799805 141.5367736816406 175
  endloop
endfacet
facet normal 0 0 1
  outer loop
    vertex 59.10114669799805 141.5367736816406 175
    vertex 58.29079055786133 -141.8724365234375 175
    vertex 93.02386474609375 -121.9514770507813 175
  endloop
endfacet
facet normal 0 0 1
  outer loop
    vertex 59.10114669799805 141.5367736816406 175
    vertex 93.02386474609375 -121.9514770507813 175
    vertex 93.71973419189453 121.4175186157227 175
  endloop
endfacet
facet normal 0 0 1
  outer loop
    vertex 93.71973419189453 121.4175186157227 175
    vertex 93.02386474609375 -121.9514770507813 175
    vertex 121.4175186157227 -93.71973419189453 175
  endloop
endfacet
facet normal 0 0 1
  outer loop
    vertex 93.71973419189453 121.4175186157227 175
    vertex 121.4175186157227 -93.71973419189453 175
    vertex 121.9514770507813 93.02386474609375 175
  endloop
endfacet
facet normal 0 0 1
  outer loop
    vertex 121.9514770507813 93.02386474609375 175
    vertex 121.4175186157227 -93.71973419189453 175
    vertex 141.5367736816406 -59.10114669799805 175
  endloop
endfacet
facet normal 0 0 1
  outer loop
    vertex 121.9514770507813 93.02386474609375 175
    vertex 141.5367736816406 -59.10114669799805 175
    vertex 141.8724365234375 58.29079055786133 175
  endloop
endfacet
facet normal 0 0 1
  outer loop
    vertex 141.8724365234375 58.29079055786133 175
    vertex 141.5367736816406 -59.10114669799805 175
    vertex 152.0105285644531 -20.45491027832031 175
  endloop
endfacet
facet normal 0 0 1
  outer loop
    vertex 141.8724365234375 58.29079055786133 175
    vertex 152.0105285644531 -20.45491027832031 175
    vertex 152.1250152587891 19.58529281616211 175
  endloop
endfacet
endsolid 189B
